<svg viewBox="0 0 330 200" xmlns="http://www.w3.org/2000/svg"><g><g><g><g><g><line x1="51.5625" y1="178" x2="46.5625" y2="178" style="visibility: inherit;" fill="rgb(0, 0, 0)" stroke="rgb(204, 204, 204)" stroke-width="1px"></line><line x1="51.5625" y1="158.2222222222222" x2="46.5625" y2="158.2222222222222" style="visibility: inherit;" fill="rgb(0, 0, 0)" stroke="rgb(204, 204, 204)" stroke-width="1px"></line><line x1="51.5625" y1="138.44444444444446" x2="46.5625" y2="138.44444444444446" style="visibility: inherit;" fill="rgb(0, 0, 0)" stroke="rgb(204, 204, 204)" stroke-width="1px"></line><line x1="51.5625" y1="118.66666666666669" x2="46.5625" y2="118.66666666666669" style="visibility: inherit;" fill="rgb(0, 0, 0)" stroke="rgb(204, 204, 204)" stroke-width="1px"></line><line x1="51.5625" y1="98.8888888888889" x2="46.5625" y2="98.8888888888889" style="visibility: inherit;" fill="rgb(0, 0, 0)" stroke="rgb(204, 204, 204)" stroke-width="1px"></line><line x1="51.5625" y1="79.1111111111111" x2="46.5625" y2="79.1111111111111" style="visibility: inherit;" fill="rgb(0, 0, 0)" stroke="rgb(204, 204, 204)" stroke-width="1px"></line><line x1="51.5625" y1="59.33333333333334" x2="46.5625" y2="59.33333333333334" style="visibility: inherit;" fill="rgb(0, 0, 0)" stroke="rgb(204, 204, 204)" stroke-width="1px"></line><line x1="51.5625" y1="39.55555555555555" x2="46.5625" y2="39.55555555555555" style="visibility: inherit;" fill="rgb(0, 0, 0)" stroke="rgb(204, 204, 204)" stroke-width="1px"></line><line x1="51.5625" y1="19.777777777777786" x2="46.5625" y2="19.777777777777786" style="visibility: inherit;" fill="rgb(0, 0, 0)" stroke="rgb(204, 204, 204)" stroke-width="1px"></line><line x1="51.5625" y1="0" x2="46.5625" y2="0" style="visibility: inherit;" fill="rgb(0, 0, 0)" stroke="rgb(204, 204, 204)" stroke-width="1px"></line></g><g transform="translate(41.5625, 0)"><text x="0" y="178" dx="0em" dy="0.3em" style="text-anchor: end; visibility: hidden; font-family: Roboto, sans-serif; font-size: 12px; font-weight: 200;" fill="rgb(50, 49, 63)" stroke="none" stroke-width="1px">-0.5</text><text x="0" y="158.2222222222222" dx="0em" dy="0.3em" style="text-anchor: end; visibility: inherit; font-family: Roboto, sans-serif; font-size: 12px; font-weight: 200;" fill="rgb(50, 49, 63)" stroke="none" stroke-width="1px">0</text><text x="0" y="138.44444444444446" dx="0em" dy="0.3em" style="text-anchor: end; visibility: hidden; font-family: Roboto, sans-serif; font-size: 12px; font-weight: 200;" fill="rgb(50, 49, 63)" stroke="none" stroke-width="1px">0.5</text><text x="0" y="118.66666666666669" dx="0em" dy="0.3em" style="text-anchor: end; visibility: inherit; font-family: Roboto, sans-serif; font-size: 12px; font-weight: 200;" fill="rgb(50, 49, 63)" stroke="none" stroke-width="1px">1</text><text x="0" y="98.8888888888889" dx="0em" dy="0.3em" style="text-anchor: end; visibility: hidden; font-family: Roboto, sans-serif; font-size: 12px; font-weight: 200;" fill="rgb(50, 49, 63)" stroke="none" stroke-width="1px">1.5</text><text x="0" y="79.1111111111111" dx="0em" dy="0.3em" style="text-anchor: end; visibility: inherit; font-family: Roboto, sans-serif; font-size: 12px; font-weight: 200;" fill="rgb(50, 49, 63)" stroke="none" stroke-width="1px">2</text><text x="0" y="59.33333333333334" dx="0em" dy="0.3em" style="text-anchor: end; visibility: hidden; font-family: Roboto, sans-serif; font-size: 12px; font-weight: 200;" fill="rgb(50, 49, 63)" stroke="none" stroke-width="1px">2.5</text><text x="0" y="39.55555555555555" dx="0em" dy="0.3em" style="text-anchor: end; visibility: inherit; font-family: Roboto, sans-serif; font-size: 12px; font-weight: 200;" fill="rgb(50, 49, 63)" stroke="none" stroke-width="1px">3</text><text x="0" y="19.777777777777786" dx="0em" dy="0.3em" style="text-anchor: end; visibility: hidden; font-family: Roboto, sans-serif; font-size: 12px; font-weight: 200;" fill="rgb(50, 49, 63)" stroke="none" stroke-width="1px">3.5</text><text x="0" y="0" dx="0em" dy="0.3em" style="text-anchor: end; visibility: hidden; font-family: Roboto, sans-serif; font-size: 12px; font-weight: 200;" fill="rgb(50, 49, 63)" stroke="none" stroke-width="1px">4</text></g><line x1="51.5625" y1="0" x2="51.5625" y2="178" fill="rgb(0, 0, 0)" stroke="rgb(204, 204, 204)" stroke-width="1px"></line></g></g><g transform="translate(51, 0)" clip-path="url(#clip_0)"><clipPath id="clip_0"><rect width="278" height="178"></rect></clipPath><g><g><g><line x1="0" y1="0" x2="0" y2="178" fill="rgb(0, 0, 0)" stroke="rgb(60, 60, 60)" stroke-width="1px" opacity="0.25"></line><line x1="25.3125" y1="0" x2="25.3125" y2="178" fill="rgb(0, 0, 0)" stroke="rgb(60, 60, 60)" stroke-width="1px" opacity="0.25"></line><line x1="50.625" y1="0" x2="50.625" y2="178" fill="rgb(0, 0, 0)" stroke="rgb(60, 60, 60)" stroke-width="1px" opacity="0.25"></line><line x1="75.9375" y1="0" x2="75.9375" y2="178" fill="rgb(0, 0, 0)" stroke="rgb(60, 60, 60)" stroke-width="1px" opacity="0.25"></line><line x1="101.25" y1="0" x2="101.25" y2="178" fill="rgb(0, 0, 0)" stroke="rgb(60, 60, 60)" stroke-width="1px" opacity="0.25"></line><line x1="126.5625" y1="0" x2="126.5625" y2="178" fill="rgb(0, 0, 0)" stroke="rgb(60, 60, 60)" stroke-width="1px" opacity="0.25"></line><line x1="151.875" y1="0" x2="151.875" y2="178" fill="rgb(0, 0, 0)" stroke="rgb(60, 60, 60)" stroke-width="1px" opacity="0.25"></line><line x1="177.1875" y1="0" x2="177.1875" y2="178" fill="rgb(0, 0, 0)" stroke="rgb(60, 60, 60)" stroke-width="1px" opacity="0.25"></line><line x1="202.5" y1="0" x2="202.5" y2="178" fill="rgb(0, 0, 0)" stroke="rgb(60, 60, 60)" stroke-width="1px" opacity="0.25"></line><line x1="227.8125" y1="0" x2="227.8125" y2="178" fill="rgb(0, 0, 0)" stroke="rgb(60, 60, 60)" stroke-width="1px" opacity="0.25"></line><line x1="253.125" y1="0" x2="253.125" y2="178" fill="rgb(0, 0, 0)" stroke="rgb(60, 60, 60)" stroke-width="1px" opacity="0.25"></line><line x1="278.4375" y1="0" x2="278.4375" y2="178" fill="rgb(0, 0, 0)" stroke="rgb(60, 60, 60)" stroke-width="1px" opacity="0.25"></line></g><g><line x1="0" y1="178" x2="278.4375" y2="178" fill="rgb(0, 0, 0)" stroke="rgb(60, 60, 60)" stroke-width="1px" opacity="0.25"></line><line x1="0" y1="158.2222222222222" x2="278.4375" y2="158.2222222222222" fill="rgb(0, 0, 0)" stroke="rgb(60, 60, 60)" stroke-width="1px" opacity="0.25"></line><line x1="0" y1="138.44444444444446" x2="278.4375" y2="138.44444444444446" fill="rgb(0, 0, 0)" stroke="rgb(60, 60, 60)" stroke-width="1px" opacity="0.25"></line><line x1="0" y1="118.66666666666669" x2="278.4375" y2="118.66666666666669" fill="rgb(0, 0, 0)" stroke="rgb(60, 60, 60)" stroke-width="1px" opacity="0.25"></line><line x1="0" y1="98.8888888888889" x2="278.4375" y2="98.8888888888889" fill="rgb(0, 0, 0)" stroke="rgb(60, 60, 60)" stroke-width="1px" opacity="0.25"></line><line x1="0" y1="79.1111111111111" x2="278.4375" y2="79.1111111111111" fill="rgb(0, 0, 0)" stroke="rgb(60, 60, 60)" stroke-width="1px" opacity="0.25"></line><line x1="0" y1="59.33333333333334" x2="278.4375" y2="59.33333333333334" fill="rgb(0, 0, 0)" stroke="rgb(60, 60, 60)" stroke-width="1px" opacity="0.25"></line><line x1="0" y1="39.55555555555555" x2="278.4375" y2="39.55555555555555" fill="rgb(0, 0, 0)" stroke="rgb(60, 60, 60)" stroke-width="1px" opacity="0.25"></line><line x1="0" y1="19.777777777777786" x2="278.4375" y2="19.777777777777786" fill="rgb(0, 0, 0)" stroke="rgb(60, 60, 60)" stroke-width="1px" opacity="0.25"></line><line x1="0" y1="0" x2="278.4375" y2="0" fill="rgb(0, 0, 0)" stroke="rgb(60, 60, 60)" stroke-width="1px" opacity="0.25"></line></g></g></g><g><g><line x1="0" y1="158.2222222222222" x2="278.4375" y2="158.2222222222222" fill="rgb(0, 0, 0)" stroke="rgb(153, 153, 153)" stroke-width="1.5px"></line></g></g><g><g><line x1="25.3125" y1="0" x2="25.3125" y2="178" fill="rgb(0, 0, 0)" stroke="rgb(153, 153, 153)" stroke-width="1.5px"></line></g></g><g><g><g><g><g><path stroke="rgb(0, 119, 187)" stroke-width="2px" d="M26.071875000000002,38.65558571285671L26.9578125,39.320885936419145L27.84375,39.600255332566185L28.7296875,39.88130739896125L29.615625,40.30334725358989L30.5015625,40.97002728398824L31.387500000000003,42.26379514781159L32.2734375,44.00813227628547L33.159375000000004,45.52245162566554L34.0453125,47.08539121013354L34.93125,48.67974892497444L35.817187499999996,50.05805136941292L36.703125,50.86399729556813L37.589062500000004,51.35011095076483L38.475,52.62032940326299L39.3609375,53.051681310238294L40.246874999999996,53.82121921966362L41.1328125,54.58895241995793L42.01875,55.358502277061795L42.9046875,56.32761552101912L43.790625000000006,55.73446540579563L44.6765625,56.363554768803084L45.5625,55.74746640866054L46.4484375,57.367671338195294L47.334375,58.68351208859518L48.2203125,59.76045347261438L49.10625,61.43853783237606L49.9921875,62.42121436055305L50.878125000000004,63.83084909184346L51.7640625,64.29041646452777L52.65,65.3758383778621L53.535937499999996,65.94836705374175L54.421875,67.29353112513326L55.3078125,68.30728431454456L56.19375,68.98748928497669L57.0796875,69.62388616245676L57.965625,71.35916561629413L58.8515625,72.60755013870778L59.7375,73.88083032986295L60.623437499999994,75.27029677019615L61.509375,74.75104079872109L62.3953125,75.71008480175634L63.28125,77.16928273962264L64.1671875,77.87159769463584L65.05312500000001,80.1973552590724L65.9390625,81.42993646586372L66.825,82.8252035058861L67.7109375,84.20877176854752L68.596875,84.8638265351567L69.4828125,84.4527439937361L70.36875,84.76422496629118L71.2546875,84.40688967965026L72.140625,84.55187287486805L73.0265625,87.06868423026064L73.9125,89.39644601942005L74.79843749999999,90.44394546284194L75.68437499999999,90.56160810378215L76.5703125,90.84971718330067L77.45625,90.18141369756717L78.34218750000001,90.96476585244469L79.228125,93.12590449861557L80.1140625,93.69469750212754L81,95.12535846404508L81.8859375,96.05846567521526L82.77187500000001,96.85506896981286L83.6578125,96.36504066472463L84.54375,97.55192387393244L85.4296875,97.94452390579394L86.315625,98.05359265378588L87.2015625,98.5117711640353L88.08749999999999,98.64417353572179L88.97343749999999,99.46160739376516L89.859375,96.08524258363866L90.74531250000001,98.20815933734684L91.63125000000001,99.25475209349698L92.5171875,101.48742275539288L93.403125,103.53923760912767L94.2890625,104.23887004028263L95.175,104.98852684374287L96.0609375,103.01577250459506L96.946875,102.87002055028309L97.8328125,104.68295818011829L98.71875,106.19067902099279L99.6046875,107.3745757636631L100.490625,107.9665594145645L101.37656249999999,110.17344352142615L102.26249999999999,111.22615615581766L103.14843750000001,110.06633363862676L104.03437500000001,111.09693856259094L104.92031250000001,111.50190561412386L105.80625,113.20888796686297L106.6921875,112.72586531185608L107.578125,113.61477276529966L108.4640625,114.07085086214204L109.35,114.74616592974726L110.2359375,115.0933519049892L111.121875,115.80718155569289L112.0078125,116.32927033291796L112.89375,115.59603905471091L113.7796875,116.14268429420214L114.66562499999999,117.1759277516447L115.55156249999999,116.87445084654347L116.43749999999999,116.38735484257506L117.32343750000001,116.14590273471441L118.20937500000001,117.9942257427811L119.0953125,117.37729167549314L119.98125,115.03670569292473L120.8671875,115.91223558073965L121.753125,116.9360305591236L122.6390625,117.4466010379413L123.525,119.25530231282826L124.4109375,119.96714626323612L125.296875,121.42137107262538L126.1828125,122.60697199575486L127.06875,123.3387973408245L127.95468749999999,122.98695288832376L128.840625,122.65628373928766L129.7265625,124.42292941859769L130.6125,125.33423115893383L131.4984375,126.09802198062843L132.384375,126.93868722707336L133.2703125,125.1605850270806L134.15625,124.12100317943602L135.04218749999998,124.90867771163026L135.928125,124.67743884794575L136.8140625,124.92942403518754L137.70000000000002,126.63024968893818L138.5859375,126.0177018979678L139.47187499999998,126.20838576856856L140.35781250000002,127.7963468768414L141.24375,128.94849964806733L142.12968750000002,129.59189804094612L143.015625,130.61499282338764L143.9015625,130.84547719529397L144.7875,130.7402283155522L145.6734375,131.65108139139025L146.559375,132.05846566451552L147.4453125,129.546699093737L148.33124999999998,130.10382550177442L149.2171875,131.20665327903774L150.103125,131.21242132304397L150.9890625,131.25218310532608L151.875,132.50423320346326L152.76093749999998,132.73948457633074L153.646875,133.3206944261336L154.5328125,131.41500101982945L155.41875000000002,131.6961966186726L156.3046875,131.78723642077495L157.190625,133.04777405766515L158.0765625,133.01098601485018L158.9625,131.08398440955912L159.8484375,131.30621916407316L160.734375,132.35548862429837L161.6203125,133.54187557797394L162.50625,134.98878135900156L163.3921875,135.9106085959965L164.278125,137.34904717057975L165.1640625,138.1091997648943L166.04999999999998,138.529639674763L166.9359375,139.0255657237014L167.821875,139.8611454288904L168.70781250000002,140.5019575032042L169.59375,141.3038034164377L170.4796875,141.92035393126284L171.365625,141.56081487196505L172.2515625,140.8893952350619L173.1375,138.5668196666719L174.0234375,136.81340898868993L174.909375,136.40277817790906L175.7953125,138.30473594301728L176.68125,138.0061701032215L177.5671875,135.62382607350247L178.453125,136.47129177133604L179.33906249999998,138.09996151905807L180.225,138.70994438054427L181.1109375,139.35158964786288L181.99687500000002,140.46640360298437L182.8828125,141.00173799427625L183.76875,141.67467274804278L184.6546875,142.84340890967468L185.540625,143.2268705940992L186.4265625,143.26235903362934L187.3125,143.4475694163273L188.1984375,143.7447130532574L189.084375,143.880551769095L189.9703125,143.5595078404623L190.85625,144.25951276502937L191.7421875,144.90434314180573L192.62812499999998,144.5294036787897L193.5140625,144.29332582751476L194.4,144.6230747364601L195.28593750000002,144.90586286759222L196.171875,145.515548561535L197.0578125,144.9908657107549L197.94375,145.3713020132924L198.8296875,145.2199381458925L199.71562500000002,145.33816766747833L200.6015625,145.6923512936175L201.4875,146.0592386118893L202.3734375,146.5922536116899L203.259375,146.4212131802145L204.1453125,146.71937865373246L205.03125,147.6553714733725L205.91718749999998,147.6159568002002L206.803125,148.02311778553053L207.68906249999998,145.90227393864893L208.57500000000002,145.94583430358682L209.4609375,145.60181384763467L210.346875,146.7189166766618L211.2328125,147.70212440490675L212.11875,148.60534778383015L213.00468750000002,148.87991568003744L213.890625,149.35664828948964L214.7765625,149.32578773431985L215.6625,149.07316715730366L216.5484375,149.82688832873652L217.434375,149.95250084224736L218.3203125,149.81289491389234L219.20624999999998,150.28349543677857L220.0921875,150.7652332713894L220.97812499999998,150.91695722325792L221.86406250000002,149.93705044551515L222.75,147.9877092502345L223.6359375,149.05973288321803L224.521875,149.29063999132237L225.4078125,148.23872094636712L226.29375000000002,146.21665782370167L227.1796875,145.32664765234918L228.065625,145.5489306395883L228.9515625,146.88868525498916L229.8375,148.12129402549022L230.7234375,148.73930125734447L231.609375,149.34411293911347L232.49531249999998,150.12397737756484L233.38125,150.80076634824013L234.26718749999998,150.97017785937098L235.15312500000002,150.72971499315537L236.0390625,150.88508802729496L236.925,150.2037930612424L237.81093750000002,150.57303486613387L238.696875,150.36849262259508L239.58281250000002,149.75604034362829L240.46875,149.7731884586065L241.3546875,149.867207794754L242.240625,150.02183719107273L243.1265625,149.08168773694757L244.0125,149.24167750649673L244.8984375,149.05355075025372L245.78437499999998,149.88557984512008L246.6703125,150.4135566994406L247.55624999999998,150.71058532929234L248.4421875,150.73455008667196L249.328125,151.47714873102862" style="fill: none;" fill="none"></path></g></g></g></g><g opacity="0.2"><g><g><g><path stroke="rgb(0, 119, 187)" stroke-width="2px" d="M26.071875000000002,38.65558571285671L26.9578125,39.72006607055664L27.84375,39.8684499528673L28.7296875,40.21182462904188L29.615625,40.85436248779297L30.5015625,41.89228577084011L31.387500000000003,44.11390389336479L32.2734375,46.551392555236816L33.159375000000004,47.755778524610726L34.0453125,49.406174341837556L34.93125,51.05682479010689L35.817187499999996,52.11800437503391L36.703125,52.070284631517204L37.589062500000004,52.07832908630371L38.475,54.52416398790148L39.3609375,53.69840494791666L40.246874999999996,54.97520044114855L41.1328125,55.740357293022996L42.01875,56.512709829542366L42.9046875,57.7811968061659L43.790625000000006,54.844772762722435L44.6765625,57.30716811286079L45.5625,54.82334603203667L46.4484375,59.797959539625374L47.334375,60.65726386176216L48.2203125,61.375860955980095L49.10625,63.95566007826063L49.9921875,63.8952276441786L50.878125000000004,65.94529989030626L51.7640625,64.97976726955837L52.65,67.00397088792589L53.535937499999996,66.8071599536472L54.421875,69.31127707163492L55.3078125,69.82791402604845L56.19375,70.00779671139186L57.0796875,70.57848146226671L57.965625,73.96208477020264L58.8515625,74.48012691073949L59.7375,75.79075060950386L60.623437499999994,77.3544964260525L61.509375,73.97215684254965L62.3953125,77.14865080515543L63.28125,79.35807964536879L64.1671875,78.92507012685141L65.05312500000001,83.6859916051229L65.9390625,83.27880827585855L66.825,84.91810406578911L67.7109375,86.28412416246202L68.596875,85.84640868504843L69.4828125,83.83612018161351L70.36875,85.23144642512003L71.2546875,83.87088674969142L72.140625,84.76934766769409L73.0265625,90.84390126334297L73.9125,92.88808870315552L74.79843749999999,92.01519462797377L75.68437499999999,90.73810206519234L76.5703125,91.28188080257839L77.45625,89.17895846896702L78.34218750000001,92.13979408476088L79.228125,96.36761246787178L80.1140625,94.54788700739545L81,97.27134990692139L81.8859375,97.45812649197048L82.77187500000001,98.04997391170924L83.6578125,95.62999820709229L84.54375,99.33224868774414L85.4296875,98.53342395358617L86.315625,98.21719577577379L87.2015625,99.19903892940944L88.08749999999999,98.84277709325153L88.97343749999999,100.68775818083022L89.859375,91.02069536844891L90.74531250000001,101.39253446790907L91.63125000000001,100.82464122772217L92.5171875,104.83642874823677L93.403125,106.6169598897298L94.2890625,105.28831868701512L95.175,106.11301204893324L96.0609375,100.05664099587334L96.946875,102.65139261881512L97.8328125,107.40236462487114L98.71875,108.45226028230455L99.6046875,109.1504208776686L100.490625,108.85453489091661L101.37656249999999,113.48376968171861L102.26249999999999,112.80522510740492L103.14843750000001,108.32659986284044L104.03437500000001,112.64284594853717L104.92031250000001,112.1093561914232L105.80625,115.76936149597168L106.6921875,112.0013313293457L107.578125,114.94813394546509L108.4640625,114.75496800740558L109.35,115.75913853115505L110.2359375,115.6141308678521L111.121875,116.87792603174847L112.0078125,117.11240349875557L112.89375,114.49619213740033L113.7796875,116.96265215343898L114.66562499999999,118.72579293780858L115.55156249999999,116.4222354888916L116.43749999999999,115.65671083662245L117.32343750000001,115.78372457292345L118.20937500000001,120.76671025488112L119.0953125,116.45189057456123L119.98125,111.52582671907213L120.8671875,117.22553041246202L121.753125,118.47172302669948L122.6390625,118.21245675616795L123.525,121.96835422515869L124.4109375,121.03491218884784L125.296875,123.60270828670924L126.1828125,124.38537338044908L127.06875,124.43653535842896L127.95468749999999,122.45918620957268L128.840625,122.1602800157335L129.7265625,127.07289793756273L130.6125,126.701183769438L131.4984375,127.24370821317035L132.384375,128.19968509674072L133.2703125,122.49343172709149L134.15625,122.56163040796918L135.04218749999998,126.09018950992161L135.928125,124.33058055241901L136.8140625,125.30740181605023L137.70000000000002,129.18148816956412L138.5859375,125.09888021151227L139.47187499999998,126.49441157446968L140.35781250000002,130.17828853925067L141.24375,130.6767288049062L142.12968750000002,130.55699563026428L143.015625,132.14963499705L143.9015625,131.1912037531535L144.7875,130.58235499593945L145.6734375,133.01736100514728L146.559375,132.6695420742035L147.4453125,125.77904923756915L148.33124999999998,130.93951511383057L149.2171875,132.86089494493274L150.103125,131.22107338905334L150.9890625,131.31182577874927L151.875,134.38230835066904L152.76093749999998,133.092361635632L153.646875,134.1925092008379L154.5328125,128.55646091037326L155.41875000000002,132.11799001693726L156.3046875,131.9237961239285L157.190625,134.9385805130005L158.0765625,132.95580395062763L158.9625,128.1934820016225L159.8484375,131.6395712958442L160.734375,133.92939281463623L161.6203125,135.32145600848727L162.50625,137.159140030543L163.3921875,137.29334945148892L164.278125,139.50670503245462L165.1640625,139.24942865636615L166.04999999999998,139.16029953956604L166.9359375,139.76945479710898L167.821875,141.11451498667398L168.70781250000002,141.4631756146749L169.59375,142.50657228628793L170.4796875,142.84517970350055L171.365625,141.0215062830183L172.2515625,139.88226577970715L173.1375,135.0829563140869L174.0234375,134.183292971717L174.909375,135.78683196173776L175.7953125,141.1576725906796L176.68125,137.55832134352792L177.5671875,132.05031002892386L178.453125,137.74249031808642L179.33906249999998,140.54296614064108L180.225,139.62491867277356L181.1109375,140.31405754884085L181.99687500000002,142.1386245356666L182.8828125,141.80473958121408L183.76875,142.68407487869263L184.6546875,144.5965131521225L185.540625,143.802063120736L186.4265625,143.3155916929245L187.3125,143.72538499037424L188.1984375,144.19042850865256L189.084375,144.08430984285144L189.9703125,143.07794194751315L190.85625,145.30952015188006L191.7421875,145.87158870697021L192.62812499999998,143.96699448426565L193.5140625,143.9392090506024L194.4,145.1176980998781L195.28593750000002,145.33004506429037L196.171875,146.43007710244922L197.0578125,144.20384143458475L197.94375,145.94195646709866L198.8296875,144.9928923447927L199.71562500000002,145.51551194985709L200.6015625,146.22362673282623L201.4875,146.60956958929697L202.3734375,147.39177611139087L203.259375,146.16465253300137L204.1453125,147.16662686400943L205.03125,149.05936070283255L205.91718749999998,147.5568347904417L206.803125,148.6338592635261L207.68906249999998,142.7210081683265L208.57500000000002,146.01117485099368L209.4609375,145.08578316370645L210.346875,148.39457092020245L211.2328125,149.1769359972742L212.11875,149.96018285221524L213.00468750000002,149.2917675243484L213.890625,150.07174720366797L214.7765625,149.27949690156512L215.6625,148.6942362917794L216.5484375,150.9574700858858L217.434375,150.14091961251367L218.3203125,149.60348602135977L219.20624999999998,150.9893962211079L220.0921875,151.4878400233057L220.97812499999998,151.14454315106073L221.86406250000002,148.46719027890097L222.75,145.06369745731354L223.6359375,150.6677683326933L224.521875,149.63700065347882L225.4078125,146.66084237893423L226.29375000000002,143.18356313970355L227.1796875,143.99163239532047L228.065625,145.88235512044696L228.9515625,148.89831717809042L229.8375,149.9702071812418L230.7234375,149.66631210512585L231.609375,150.251330461767L232.49531249999998,151.29377403524188L233.38125,151.81594980425305L234.26718749999998,151.2242951260673L235.15312500000002,150.36902069383197L236.0390625,151.11814757850436L236.925,149.18185061216354L237.81093750000002,151.12689757347107L238.696875,150.0616792572869L239.58281250000002,148.8373619251781L240.46875,149.79891063107382L241.3546875,150.0082367989752L242.240625,150.25378128555087L243.1265625,147.67146355575986L244.0125,149.48166216082043L244.8984375,148.77136061588922L245.78437499999998,151.13362348741956L246.6703125,151.20552198092142L247.55624999999998,151.1561282740699L248.4421875,150.77049722274145L249.328125,152.5910466975636" style="fill: none;" fill="none"></path></g></g></g></g></g></g><g transform="translate(51, 178)" clip-path="url(#clip_1)"><clipPath id="clip_1"><rect width="278" height="22"></rect></clipPath><g><g><line x1="0" y1="0" x2="0" y2="5" style="visibility: inherit;" fill="rgb(0, 0, 0)" stroke="rgb(204, 204, 204)" stroke-width="1px"></line><line x1="25.3125" y1="0" x2="25.3125" y2="5" style="visibility: inherit;" fill="rgb(0, 0, 0)" stroke="rgb(204, 204, 204)" stroke-width="1px"></line><line x1="50.625" y1="0" x2="50.625" y2="5" style="visibility: inherit;" fill="rgb(0, 0, 0)" stroke="rgb(204, 204, 204)" stroke-width="1px"></line><line x1="75.9375" y1="0" x2="75.9375" y2="5" style="visibility: inherit;" fill="rgb(0, 0, 0)" stroke="rgb(204, 204, 204)" stroke-width="1px"></line><line x1="101.25" y1="0" x2="101.25" y2="5" style="visibility: inherit;" fill="rgb(0, 0, 0)" stroke="rgb(204, 204, 204)" stroke-width="1px"></line><line x1="126.5625" y1="0" x2="126.5625" y2="5" style="visibility: inherit;" fill="rgb(0, 0, 0)" stroke="rgb(204, 204, 204)" stroke-width="1px"></line><line x1="151.875" y1="0" x2="151.875" y2="5" style="visibility: inherit;" fill="rgb(0, 0, 0)" stroke="rgb(204, 204, 204)" stroke-width="1px"></line><line x1="177.1875" y1="0" x2="177.1875" y2="5" style="visibility: inherit;" fill="rgb(0, 0, 0)" stroke="rgb(204, 204, 204)" stroke-width="1px"></line><line x1="202.5" y1="0" x2="202.5" y2="5" style="visibility: inherit;" fill="rgb(0, 0, 0)" stroke="rgb(204, 204, 204)" stroke-width="1px"></line><line x1="227.8125" y1="0" x2="227.8125" y2="5" style="visibility: inherit;" fill="rgb(0, 0, 0)" stroke="rgb(204, 204, 204)" stroke-width="1px"></line><line x1="253.125" y1="0" x2="253.125" y2="5" style="visibility: inherit;" fill="rgb(0, 0, 0)" stroke="rgb(204, 204, 204)" stroke-width="1px"></line><line x1="278.4375" y1="0" x2="278.4375" y2="5" style="visibility: inherit;" fill="rgb(0, 0, 0)" stroke="rgb(204, 204, 204)" stroke-width="1px"></line></g><g transform="translate(0, 8)"><text x="0" y="0" dx="0em" dy="0.95em" style="text-anchor: middle; visibility: hidden; font-family: Roboto, sans-serif; font-size: 12px; font-weight: 200;" fill="rgb(50, 49, 63)" stroke="none" stroke-width="1px">-200</text><text x="25.3125" y="0" dx="0em" dy="0.95em" style="text-anchor: middle; visibility: inherit; font-family: Roboto, sans-serif; font-size: 12px; font-weight: 200;" fill="rgb(50, 49, 63)" stroke="none" stroke-width="1px">0</text><text x="50.625" y="0" dx="0em" dy="0.95em" style="text-anchor: middle; visibility: hidden; font-family: Roboto, sans-serif; font-size: 12px; font-weight: 200;" fill="rgb(50, 49, 63)" stroke="none" stroke-width="1px">200</text><text x="75.9375" y="0" dx="0em" dy="0.95em" style="text-anchor: middle; visibility: inherit; font-family: Roboto, sans-serif; font-size: 12px; font-weight: 200;" fill="rgb(50, 49, 63)" stroke="none" stroke-width="1px">400</text><text x="101.25" y="0" dx="0em" dy="0.95em" style="text-anchor: middle; visibility: hidden; font-family: Roboto, sans-serif; font-size: 12px; font-weight: 200;" fill="rgb(50, 49, 63)" stroke="none" stroke-width="1px">600</text><text x="126.5625" y="0" dx="0em" dy="0.95em" style="text-anchor: middle; visibility: inherit; font-family: Roboto, sans-serif; font-size: 12px; font-weight: 200;" fill="rgb(50, 49, 63)" stroke="none" stroke-width="1px">800</text><text x="151.875" y="0" dx="0em" dy="0.95em" style="text-anchor: middle; visibility: hidden; font-family: Roboto, sans-serif; font-size: 12px; font-weight: 200;" fill="rgb(50, 49, 63)" stroke="none" stroke-width="1px">1k</text><text x="177.1875" y="0" dx="0em" dy="0.95em" style="text-anchor: middle; visibility: inherit; font-family: Roboto, sans-serif; font-size: 12px; font-weight: 200;" fill="rgb(50, 49, 63)" stroke="none" stroke-width="1px">1.2k</text><text x="202.5" y="0" dx="0em" dy="0.95em" style="text-anchor: middle; visibility: hidden; font-family: Roboto, sans-serif; font-size: 12px; font-weight: 200;" fill="rgb(50, 49, 63)" stroke="none" stroke-width="1px">1.4k</text><text x="227.8125" y="0" dx="0em" dy="0.95em" style="text-anchor: middle; visibility: inherit; font-family: Roboto, sans-serif; font-size: 12px; font-weight: 200;" fill="rgb(50, 49, 63)" stroke="none" stroke-width="1px">1.6k</text><text x="253.125" y="0" dx="0em" dy="0.95em" style="text-anchor: middle; visibility: hidden; font-family: Roboto, sans-serif; font-size: 12px; font-weight: 200;" fill="rgb(50, 49, 63)" stroke="none" stroke-width="1px">1.8k</text><text x="278.4375" y="0" dx="0em" dy="0.95em" style="text-anchor: middle; visibility: hidden; font-family: Roboto, sans-serif; font-size: 12px; font-weight: 200;" fill="rgb(50, 49, 63)" stroke="none" stroke-width="1px">2k</text></g><line x1="0" y1="0" x2="278.4375" y2="0" fill="rgb(0, 0, 0)" stroke="rgb(204, 204, 204)" stroke-width="1px"></line></g></g></g></g></svg>