<svg viewBox="0 0 330 200" xmlns="http://www.w3.org/2000/svg"><g><g><g><g><g><line x1="51.5625" y1="178" x2="46.5625" y2="178" style="visibility: inherit;" fill="rgb(0, 0, 0)" stroke="rgb(204, 204, 204)" stroke-width="1px"></line><line x1="51.5625" y1="164.30769230769232" x2="46.5625" y2="164.30769230769232" style="visibility: inherit;" fill="rgb(0, 0, 0)" stroke="rgb(204, 204, 204)" stroke-width="1px"></line><line x1="51.5625" y1="150.6153846153846" x2="46.5625" y2="150.6153846153846" style="visibility: inherit;" fill="rgb(0, 0, 0)" stroke="rgb(204, 204, 204)" stroke-width="1px"></line><line x1="51.5625" y1="136.9230769230769" x2="46.5625" y2="136.9230769230769" style="visibility: inherit;" fill="rgb(0, 0, 0)" stroke="rgb(204, 204, 204)" stroke-width="1px"></line><line x1="51.5625" y1="123.23076923076923" x2="46.5625" y2="123.23076923076923" style="visibility: inherit;" fill="rgb(0, 0, 0)" stroke="rgb(204, 204, 204)" stroke-width="1px"></line><line x1="51.5625" y1="109.53846153846155" x2="46.5625" y2="109.53846153846155" style="visibility: inherit;" fill="rgb(0, 0, 0)" stroke="rgb(204, 204, 204)" stroke-width="1px"></line><line x1="51.5625" y1="95.84615384615387" x2="46.5625" y2="95.84615384615387" style="visibility: inherit;" fill="rgb(0, 0, 0)" stroke="rgb(204, 204, 204)" stroke-width="1px"></line><line x1="51.5625" y1="82.15384615384616" x2="46.5625" y2="82.15384615384616" style="visibility: inherit;" fill="rgb(0, 0, 0)" stroke="rgb(204, 204, 204)" stroke-width="1px"></line><line x1="51.5625" y1="68.46153846153848" x2="46.5625" y2="68.46153846153848" style="visibility: inherit;" fill="rgb(0, 0, 0)" stroke="rgb(204, 204, 204)" stroke-width="1px"></line><line x1="51.5625" y1="54.769230769230774" x2="46.5625" y2="54.769230769230774" style="visibility: inherit;" fill="rgb(0, 0, 0)" stroke="rgb(204, 204, 204)" stroke-width="1px"></line><line x1="51.5625" y1="41.07692307692309" x2="46.5625" y2="41.07692307692309" style="visibility: inherit;" fill="rgb(0, 0, 0)" stroke="rgb(204, 204, 204)" stroke-width="1px"></line><line x1="51.5625" y1="27.384615384615387" x2="46.5625" y2="27.384615384615387" style="visibility: inherit;" fill="rgb(0, 0, 0)" stroke="rgb(204, 204, 204)" stroke-width="1px"></line><line x1="51.5625" y1="13.692307692307683" x2="46.5625" y2="13.692307692307683" style="visibility: inherit;" fill="rgb(0, 0, 0)" stroke="rgb(204, 204, 204)" stroke-width="1px"></line><line x1="51.5625" y1="0" x2="46.5625" y2="0" style="visibility: inherit;" fill="rgb(0, 0, 0)" stroke="rgb(204, 204, 204)" stroke-width="1px"></line></g><g transform="translate(41.5625, 0)"><text x="0" y="178" dx="0em" dy="0.3em" style="text-anchor: end; visibility: hidden; font-family: Roboto, sans-serif; font-size: 12px; font-weight: 200;" fill="rgb(50, 49, 63)" stroke="none" stroke-width="1px">-0.1</text><text x="0" y="164.30769230769232" dx="0em" dy="0.3em" style="text-anchor: end; visibility: inherit; font-family: Roboto, sans-serif; font-size: 12px; font-weight: 200;" fill="rgb(50, 49, 63)" stroke="none" stroke-width="1px">0</text><text x="0" y="150.6153846153846" dx="0em" dy="0.3em" style="text-anchor: end; visibility: hidden; font-family: Roboto, sans-serif; font-size: 12px; font-weight: 200;" fill="rgb(50, 49, 63)" stroke="none" stroke-width="1px">0.1</text><text x="0" y="136.9230769230769" dx="0em" dy="0.3em" style="text-anchor: end; visibility: inherit; font-family: Roboto, sans-serif; font-size: 12px; font-weight: 200;" fill="rgb(50, 49, 63)" stroke="none" stroke-width="1px">0.2</text><text x="0" y="123.23076923076923" dx="0em" dy="0.3em" style="text-anchor: end; visibility: hidden; font-family: Roboto, sans-serif; font-size: 12px; font-weight: 200;" fill="rgb(50, 49, 63)" stroke="none" stroke-width="1px">0.3</text><text x="0" y="109.53846153846155" dx="0em" dy="0.3em" style="text-anchor: end; visibility: inherit; font-family: Roboto, sans-serif; font-size: 12px; font-weight: 200;" fill="rgb(50, 49, 63)" stroke="none" stroke-width="1px">0.4</text><text x="0" y="95.84615384615387" dx="0em" dy="0.3em" style="text-anchor: end; visibility: hidden; font-family: Roboto, sans-serif; font-size: 12px; font-weight: 200;" fill="rgb(50, 49, 63)" stroke="none" stroke-width="1px">0.5</text><text x="0" y="82.15384615384616" dx="0em" dy="0.3em" style="text-anchor: end; visibility: inherit; font-family: Roboto, sans-serif; font-size: 12px; font-weight: 200;" fill="rgb(50, 49, 63)" stroke="none" stroke-width="1px">0.6</text><text x="0" y="68.46153846153848" dx="0em" dy="0.3em" style="text-anchor: end; visibility: hidden; font-family: Roboto, sans-serif; font-size: 12px; font-weight: 200;" fill="rgb(50, 49, 63)" stroke="none" stroke-width="1px">0.7</text><text x="0" y="54.769230769230774" dx="0em" dy="0.3em" style="text-anchor: end; visibility: inherit; font-family: Roboto, sans-serif; font-size: 12px; font-weight: 200;" fill="rgb(50, 49, 63)" stroke="none" stroke-width="1px">0.8</text><text x="0" y="41.07692307692309" dx="0em" dy="0.3em" style="text-anchor: end; visibility: hidden; font-family: Roboto, sans-serif; font-size: 12px; font-weight: 200;" fill="rgb(50, 49, 63)" stroke="none" stroke-width="1px">0.9</text><text x="0" y="27.384615384615387" dx="0em" dy="0.3em" style="text-anchor: end; visibility: inherit; font-family: Roboto, sans-serif; font-size: 12px; font-weight: 200;" fill="rgb(50, 49, 63)" stroke="none" stroke-width="1px">1</text><text x="0" y="13.692307692307683" dx="0em" dy="0.3em" style="text-anchor: end; visibility: hidden; font-family: Roboto, sans-serif; font-size: 12px; font-weight: 200;" fill="rgb(50, 49, 63)" stroke="none" stroke-width="1px">1.1</text><text x="0" y="0" dx="0em" dy="0.3em" style="text-anchor: end; visibility: hidden; font-family: Roboto, sans-serif; font-size: 12px; font-weight: 200;" fill="rgb(50, 49, 63)" stroke="none" stroke-width="1px">1.2</text></g><line x1="51.5625" y1="0" x2="51.5625" y2="178" fill="rgb(0, 0, 0)" stroke="rgb(204, 204, 204)" stroke-width="1px"></line></g></g><g transform="translate(51, 0)" clip-path="url(#clip_0)"><clipPath id="clip_0"><rect width="278" height="178"></rect></clipPath><g><g><g><line x1="0" y1="0" x2="0" y2="178" fill="rgb(0, 0, 0)" stroke="rgb(60, 60, 60)" stroke-width="1px" opacity="0.25"></line><line x1="25.3125" y1="0" x2="25.3125" y2="178" fill="rgb(0, 0, 0)" stroke="rgb(60, 60, 60)" stroke-width="1px" opacity="0.25"></line><line x1="50.625" y1="0" x2="50.625" y2="178" fill="rgb(0, 0, 0)" stroke="rgb(60, 60, 60)" stroke-width="1px" opacity="0.25"></line><line x1="75.9375" y1="0" x2="75.9375" y2="178" fill="rgb(0, 0, 0)" stroke="rgb(60, 60, 60)" stroke-width="1px" opacity="0.25"></line><line x1="101.25" y1="0" x2="101.25" y2="178" fill="rgb(0, 0, 0)" stroke="rgb(60, 60, 60)" stroke-width="1px" opacity="0.25"></line><line x1="126.5625" y1="0" x2="126.5625" y2="178" fill="rgb(0, 0, 0)" stroke="rgb(60, 60, 60)" stroke-width="1px" opacity="0.25"></line><line x1="151.875" y1="0" x2="151.875" y2="178" fill="rgb(0, 0, 0)" stroke="rgb(60, 60, 60)" stroke-width="1px" opacity="0.25"></line><line x1="177.1875" y1="0" x2="177.1875" y2="178" fill="rgb(0, 0, 0)" stroke="rgb(60, 60, 60)" stroke-width="1px" opacity="0.25"></line><line x1="202.5" y1="0" x2="202.5" y2="178" fill="rgb(0, 0, 0)" stroke="rgb(60, 60, 60)" stroke-width="1px" opacity="0.25"></line><line x1="227.8125" y1="0" x2="227.8125" y2="178" fill="rgb(0, 0, 0)" stroke="rgb(60, 60, 60)" stroke-width="1px" opacity="0.25"></line><line x1="253.125" y1="0" x2="253.125" y2="178" fill="rgb(0, 0, 0)" stroke="rgb(60, 60, 60)" stroke-width="1px" opacity="0.25"></line><line x1="278.4375" y1="0" x2="278.4375" y2="178" fill="rgb(0, 0, 0)" stroke="rgb(60, 60, 60)" stroke-width="1px" opacity="0.25"></line></g><g><line x1="0" y1="178" x2="278.4375" y2="178" fill="rgb(0, 0, 0)" stroke="rgb(60, 60, 60)" stroke-width="1px" opacity="0.25"></line><line x1="0" y1="164.30769230769232" x2="278.4375" y2="164.30769230769232" fill="rgb(0, 0, 0)" stroke="rgb(60, 60, 60)" stroke-width="1px" opacity="0.25"></line><line x1="0" y1="150.6153846153846" x2="278.4375" y2="150.6153846153846" fill="rgb(0, 0, 0)" stroke="rgb(60, 60, 60)" stroke-width="1px" opacity="0.25"></line><line x1="0" y1="136.9230769230769" x2="278.4375" y2="136.9230769230769" fill="rgb(0, 0, 0)" stroke="rgb(60, 60, 60)" stroke-width="1px" opacity="0.25"></line><line x1="0" y1="123.23076923076923" x2="278.4375" y2="123.23076923076923" fill="rgb(0, 0, 0)" stroke="rgb(60, 60, 60)" stroke-width="1px" opacity="0.25"></line><line x1="0" y1="109.53846153846155" x2="278.4375" y2="109.53846153846155" fill="rgb(0, 0, 0)" stroke="rgb(60, 60, 60)" stroke-width="1px" opacity="0.25"></line><line x1="0" y1="95.84615384615387" x2="278.4375" y2="95.84615384615387" fill="rgb(0, 0, 0)" stroke="rgb(60, 60, 60)" stroke-width="1px" opacity="0.25"></line><line x1="0" y1="82.15384615384616" x2="278.4375" y2="82.15384615384616" fill="rgb(0, 0, 0)" stroke="rgb(60, 60, 60)" stroke-width="1px" opacity="0.25"></line><line x1="0" y1="68.46153846153848" x2="278.4375" y2="68.46153846153848" fill="rgb(0, 0, 0)" stroke="rgb(60, 60, 60)" stroke-width="1px" opacity="0.25"></line><line x1="0" y1="54.769230769230774" x2="278.4375" y2="54.769230769230774" fill="rgb(0, 0, 0)" stroke="rgb(60, 60, 60)" stroke-width="1px" opacity="0.25"></line><line x1="0" y1="41.07692307692309" x2="278.4375" y2="41.07692307692309" fill="rgb(0, 0, 0)" stroke="rgb(60, 60, 60)" stroke-width="1px" opacity="0.25"></line><line x1="0" y1="27.384615384615387" x2="278.4375" y2="27.384615384615387" fill="rgb(0, 0, 0)" stroke="rgb(60, 60, 60)" stroke-width="1px" opacity="0.25"></line><line x1="0" y1="13.692307692307683" x2="278.4375" y2="13.692307692307683" fill="rgb(0, 0, 0)" stroke="rgb(60, 60, 60)" stroke-width="1px" opacity="0.25"></line><line x1="0" y1="0" x2="278.4375" y2="0" fill="rgb(0, 0, 0)" stroke="rgb(60, 60, 60)" stroke-width="1px" opacity="0.25"></line></g></g></g><g><g><line x1="0" y1="164.30769230769232" x2="278.4375" y2="164.30769230769232" fill="rgb(0, 0, 0)" stroke="rgb(153, 153, 153)" stroke-width="1.5px"></line></g></g><g><g><line x1="25.3125" y1="0" x2="25.3125" y2="178" fill="rgb(0, 0, 0)" stroke="rgb(153, 153, 153)" stroke-width="1.5px"></line></g></g><g><g><g><g><g><path stroke="rgb(0, 119, 187)" stroke-width="2px" d="M26.071875000000002,162.93846156906622L26.9578125,160.37115393414234L27.84375,156.79089498747976L28.7296875,154.5821265625995L29.615625,152.86164506049758L30.5015625,153.6426566667061L31.387500000000003,150.70647694356282L32.2734375,150.66941747389703L33.159375000000004,150.6475842199839L34.0453125,150.6346259427847L34.93125,151.7262745943139L35.817187499999996,149.08540073175232L36.703125,145.8593345671189L37.589062500000004,146.11888131614865L38.475,145.72652889421133L39.3609375,143.29984773597633L40.246874999999996,141.84427725500282L41.1328125,142.0665891268558L42.01875,142.1999617991772L42.9046875,138.44599344611436L43.790625000000006,140.57533476016616L44.6765625,138.01901342849894L45.5625,137.58063520109977L46.4484375,134.5791361291819L47.334375,133.87363328938306L48.2203125,130.71186682263624L49.10625,129.36250274029513L49.9921875,129.64827105043497L50.878125000000004,129.27203993703318L51.7640625,129.59399326416462L52.65,128.69177986659977L53.535937499999996,127.60276007569074L54.421875,128.04473351191658L55.3078125,126.66684052470175L56.19375,124.19702774102636L57.0796875,122.1674466747225L57.965625,122.0450832581116L58.8515625,116.49474243781982L59.7375,115.35530673745482L60.623437499999994,115.21933710496485L61.509375,115.13775532558721L62.3953125,116.7318832471601L63.28125,114.40220765418046L64.1671875,114.64747765522446L65.05312500000001,104.3884859391682L65.9390625,104.2577070786882L66.825,101.44077757094125L67.7109375,102.48908205778369L68.596875,102.02267954686464L69.4828125,105.02899201707763L70.36875,106.28508771381503L71.2546875,105.94335992885564L72.140625,105.19063147250746L73.0265625,100.35745685121653L73.9125,98.00524386381777L74.79843749999999,99.33237663049185L75.68437499999999,103.41481026723058L76.5703125,104.22119346090611L77.45625,100.87117761500492L78.34218750000001,98.31347632209214L79.228125,96.77885554634457L80.1140625,96.40577486626827L81,99.4680804349564L81.8859375,98.56700158480761L82.77187500000001,93.64481672723998L83.6578125,99.45458253990634L84.54375,95.2727488710437L85.4296875,95.50211086108774L86.315625,93.99665269899754L87.2015625,90.90260739575398L88.08749999999999,93.42771776128616L88.97343749999999,89.46586286238269L89.859375,95.30413323262502L90.74531250000001,93.33017107204714L91.63125000000001,92.14579377570038L92.5171875,89.24440025640347L93.403125,84.21741016809145L94.2890625,84.48737009183809L95.175,84.10165426071389L96.0609375,86.60868368890044L96.946875,90.85136353717401L97.8328125,88.46774211328764L98.71875,85.39449063833861L99.6046875,83.55053975336918L100.490625,85.18263141374918L101.37656249999999,81.23265707712665L102.26249999999999,80.5057478312698L103.14843750000001,81.7126809043729L104.03437500000001,81.88914569836199L104.92031250000001,81.99502457475543L105.80625,78.22470613848543L106.6921875,77.05790191196837L107.578125,76.9055111614304L108.4640625,76.2663849257354L109.35,74.23983056370118L110.2359375,75.21466835247008L111.121875,74.70418419048643L112.0078125,74.94558874316898L112.89375,76.18581504552299L113.7796875,76.38225904156316L114.66562499999999,74.85704681857004L115.55156249999999,76.1326898907636L116.43749999999999,76.35038394870753L117.32343750000001,78.12407573959054L118.20937500000001,74.25906148126982L119.0953125,74.67851511763905L119.98125,75.47787908483278L120.8671875,74.31441884453184L121.753125,74.71172953559625L122.6390625,73.8547291149899L123.525,73.3405288626261L124.4109375,75.22277911719725L125.296875,70.87520488721663L126.1828125,68.81435213460048L127.06875,67.03014869765857L127.95468749999999,68.15039704148288L128.840625,68.82254604777745L129.7265625,65.39198968944808L130.6125,67.16750163655657L131.4984375,66.04203839883222L132.384375,64.8190686708254L133.2703125,67.37144081075519L134.15625,68.35517230934083L135.04218749999998,66.75464080250278L135.928125,67.98509230438938L136.8140625,69.81874677626577L137.70000000000002,64.3466315059239L138.5859375,63.80182453508041L139.47187499999998,62.927248567202106L140.35781250000002,59.66404079511345L141.24375,58.25380791723249L142.12968750000002,57.9553632403767L143.015625,57.22860138439044L143.9015625,56.244852485426456L144.7875,57.8453735520375L145.6734375,58.2579944066319L146.559375,57.95787513401634L147.4453125,57.23010852057422L148.33124999999998,57.34114360238171L149.2171875,57.95545643683845L150.103125,58.32404413751249L150.9890625,57.449809922671896L151.875,55.2821940376509L152.76093749999998,58.36316205411662L153.646875,56.37789710188994L154.5328125,57.37750853654338L155.41875000000002,55.78650499134601L156.3046875,57.02267327021703L157.190625,52.83514164018854L158.0765625,54.15646842427754L158.9625,56.59234311534815L159.8484375,58.05386792999051L160.734375,57.835399248031486L161.6203125,56.60893120361109L162.50625,55.87305037695887L163.3921875,54.88383009559529L164.278125,53.19491435603274L165.1640625,51.08617807705017L166.04999999999998,49.82093630966065L166.9359375,49.6094862990997L167.821875,47.291845886773736L168.70781250000002,45.35356985400589L169.59375,44.738296019717446L170.4796875,42.17836131315492L171.365625,42.833170895206855L172.2515625,44.869132000554664L173.1375,48.82917085512502L174.0234375,52.3005810031122L174.909375,52.192656685915075L175.7953125,48.84174811886295L176.68125,49.56966516999331L177.5671875,52.74487759203318L178.453125,50.81615601865047L179.33906249999998,49.1112312892486L180.225,48.0882764516075L181.1109375,46.37911997827838L181.99687500000002,45.353626094280926L182.8828125,46.38140511999911L183.76875,43.711918558696155L184.6546875,41.562534836542156L185.540625,41.915983223866974L186.4265625,41.58036047088962L187.3125,42.47437038984767L188.1984375,43.01077634122251L189.084375,43.33261991204739L189.9703125,42.9780342691701L190.85625,42.76528288344373L191.7421875,40.99455343139069L192.62812499999998,41.575194380776075L193.5140625,39.73280854441791L194.4,38.62737704260297L195.28593750000002,39.60719676213122L196.171875,38.55200997323099L197.0578125,42.30043544736915L197.94375,41.26333675511816L198.8296875,40.093385754395335L199.71562500000002,39.93910693933388L200.6015625,39.846539650297L201.4875,40.33869432674765L202.3734375,40.08629208274526L203.259375,38.29177538022718L204.1453125,38.31044892946076L205.03125,35.583190867639274L205.91718749999998,36.13760643653582L206.803125,35.374872207129314L207.68906249999998,38.75107743159146L208.57500000000002,38.03833837490714L209.4609375,38.158386726268745L210.346875,36.03964859559683L211.2328125,34.2207106673209L212.11875,34.77242653097257L213.00468750000002,34.555764263791346L213.890625,34.42576690348261L214.7765625,34.34776848729736L215.6625,34.30096943758624L216.5484375,32.629811387142325L217.434375,33.270195177493186L218.3203125,33.106733666331486L219.20624999999998,33.00865675963449L220.0921875,31.854423780371278L220.97812499999998,31.709575778185602L221.86406250000002,32.71805381211915L222.75,36.60929460921315L223.6359375,34.562498275490704L224.521875,34.97749909587444L225.4078125,37.41726999409413L226.29375000000002,40.524207889142595L227.1796875,43.4837541969161L228.065625,41.42563621947413L228.9515625,39.643073647636704L229.8375,36.382765698544844L230.7234375,35.521967764334725L231.609375,35.55318078918086L232.49531249999998,33.92882998347135L233.38125,32.95421950004561L234.26718749999998,32.369453209990176L235.15312500000002,33.113980271201925L236.0390625,33.01300472255672L236.925,34.595494749486285L237.81093750000002,33.90191340952735L238.696875,33.48576460555199L239.58281250000002,35.426842464655635L240.46875,36.59148918011785L241.3546875,36.19489363865075L242.240625,35.956936313770456L243.1265625,35.814161918842295L244.0125,36.276189067257604L244.8984375,36.55340535630681L245.78437499999998,35.624351558991904L246.6703125,33.97153244535794L247.55624999999998,33.52753602705036L248.4421875,33.808829961438015L249.328125,32.334527701453396" style="fill: none;" fill="none"></path></g></g></g></g><g opacity="0.2"><g><g><g><path stroke="rgb(0, 119, 187)" stroke-width="2px" d="M26.071875000000002,162.93846156906622L26.9578125,158.830769353188L27.84375,153.3538463986837L28.7296875,151.9846148949403L29.615625,150.61538441135332L30.5015625,154.72307688227068L31.387500000000003,146.5076929605924L32.2734375,150.61538441135332L33.159375000000004,150.61538441135332L34.0453125,150.61538441135332L34.93125,153.3538463986837L35.817187499999996,145.13846145684903L36.703125,141.0307689859317L37.589062500000004,146.5076929605924L38.475,145.13846145684903L39.3609375,139.6615374821883L40.246874999999996,139.6615374821883L41.1328125,142.40000048967508L42.01875,142.40000048967508L42.9046875,132.81538404409702L43.790625000000006,143.76922995310565L44.6765625,134.18461554784042L45.5625,136.92307651501437L46.4484375,130.0769230769231L47.334375,132.81538404409702L48.2203125,125.96923060600574L49.10625,127.33846006943628L49.9921875,130.0769230769231L50.878125000000004,128.70769361349255L51.7640625,130.0769230769231L52.65,127.33846006943628L53.535937499999996,125.96923060600574L54.421875,128.70769361349255L55.3078125,124.6000011425752L56.19375,120.49230867165787L57.0796875,119.12307512760162L57.965625,121.86153813508841L58.8515625,108.16923125890585L59.7375,113.64615319325372L60.623437499999994,115.0153826566843L61.509375,115.0153826566843L62.3953125,119.12307512760162L63.28125,110.90769426639264L64.1671875,115.0153826566843L65.05312500000001,88.99999836774973L65.9390625,104.06153878798852L66.825,97.21538330958441L67.7109375,104.06153878798852L68.596875,101.32307578050174L69.4828125,109.53846072233642L70.36875,108.16923125890585L71.2546875,105.43076825141907L72.140625,104.06153878798852L73.0265625,93.10769491929275L73.9125,94.4769243827233L74.79843749999999,101.32307578050174L75.68437499999999,109.53846072233642L76.5703125,105.43076825141907L77.45625,95.84615384615387L78.34218750000001,94.4769243827233L79.228125,94.4769243827233L80.1140625,95.84615384615387L81,104.06153878798852L81.8859375,97.21538330958441L82.77187500000001,86.26153944088864L83.6578125,108.16923125890585L84.54375,88.99999836774973L85.4296875,95.84615384615387L86.315625,91.73846545586218L87.2015625,86.26153944088864L88.08749999999999,97.21538330958441L88.97343749999999,83.52308051402753L89.859375,104.06153878798852L90.74531250000001,90.3692278311803L91.63125000000001,90.3692278311803L92.5171875,84.89230997745807L93.403125,76.67692503562341L94.2890625,84.89230997745807L95.175,83.52308051402753L96.0609375,90.3692278311803L96.946875,97.21538330958441L97.8328125,84.89230997745807L98.71875,80.78461342591507L99.6046875,80.78461342591507L100.490625,87.63076890431918L101.37656249999999,75.30769557219287L102.26249999999999,79.41538396248453L103.14843750000001,83.52308051402753L104.03437500000001,82.15384288934561L104.92031250000001,82.15384288934561L105.80625,72.56922848408038L106.6921875,75.30769557219287L107.578125,76.67692503562341L108.4640625,75.30769557219287L109.35,71.19999902064984L110.2359375,76.67692503562341L111.121875,73.93845794751095L112.0078125,75.30769557219287L112.89375,78.04615449905396L113.7796875,76.67692503562341L114.66562499999999,72.56922848408038L115.55156249999999,78.04615449905396L116.43749999999999,76.67692503562341L117.32343750000001,80.78461342591507L118.20937500000001,68.46154009378876L119.0953125,75.30769557219287L119.98125,76.67692503562341L120.8671875,72.56922848408038L121.753125,75.30769557219287L122.6390625,72.56922848408038L123.525,72.56922848408038L124.4109375,78.04615449905396L125.296875,64.35384354224573L126.1828125,65.72307300567627L127.06875,64.35384354224573L127.95468749999999,69.8307695572193L128.840625,69.8307695572193L129.7265625,60.24615515195407L130.6125,69.8307695572193L131.4984375,64.35384354224573L132.384375,62.98461407881518L133.2703125,71.19999902064984L134.15625,69.8307695572193L135.04218749999998,64.35384354224573L135.928125,69.8307695572193L136.8140625,72.56922848408038L137.70000000000002,56.13845860041106L138.5859375,62.98461407881518L139.47187499999998,61.61538461538461L140.35781250000002,54.7692291369805L141.24375,56.13845860041106L142.12968750000002,57.50769622509298L143.015625,56.13845860041106L143.9015625,54.7692291369805L144.7875,60.24615515195407L145.6734375,58.87692568852352L146.559375,57.50769622509298L147.4453125,56.13845860041106L148.33124999999998,57.50769622509298L149.2171875,58.87692568852352L150.103125,58.87692568852352L150.9890625,56.13845860041106L151.875,52.03077021011941L152.76093749999998,62.98461407881518L153.646875,53.39999967354996L154.5328125,58.87692568852352L155.41875000000002,53.39999967354996L156.3046875,58.87692568852352L157.190625,46.553844195145835L158.0765625,56.13845860041106L158.9625,60.24615515195407L159.8484375,60.24615515195407L160.734375,57.50769622509298L161.6203125,54.7692291369805L162.50625,54.7692291369805L163.3921875,53.39999967354996L164.278125,50.66154074668884L165.1640625,47.923073658576385L166.04999999999998,47.923073658576385L166.9359375,49.2923112832583L167.821875,43.81538526828473L168.70781250000002,42.44615580485418L169.59375,43.81538526828473L170.4796875,38.33845925331116L171.365625,43.81538526828473L172.2515625,47.923073658576385L173.1375,54.7692291369805L174.0234375,57.50769622509298L174.909375,52.03077021011941L175.7953125,43.81538526828473L176.68125,50.66154074668884L177.5671875,57.50769622509298L178.453125,47.923073658576385L179.33906249999998,46.553844195145835L180.225,46.553844195145835L181.1109375,43.81538526828473L181.99687500000002,43.81538526828473L182.8828125,47.923073658576385L183.76875,39.7076887167417L184.6546875,38.33845925331116L185.540625,42.44615580485418L186.4265625,41.076926341423636L187.3125,43.81538526828473L188.1984375,43.81538526828473L189.084375,43.81538526828473L189.9703125,42.44615580485418L190.85625,42.44615580485418L191.7421875,38.33845925331116L192.62812499999998,42.44615580485418L193.5140625,36.96922978988059L194.4,36.96922978988059L195.28593750000002,41.076926341423636L196.171875,36.96922978988059L197.0578125,47.923073658576385L197.94375,39.7076887167417L198.8296875,38.33845925331116L199.71562500000002,39.7076887167417L200.6015625,39.7076887167417L201.4875,41.076926341423636L202.3734375,39.7076887167417L203.259375,35.60000032645004L204.1453125,38.33845925331116L205.03125,31.492303774907022L205.91718749999998,36.96922978988059L206.803125,34.2307708630195L207.68906249999998,43.81538526828473L208.57500000000002,36.96922978988059L209.4609375,38.33845925331116L210.346875,32.86154139958894L211.2328125,31.492303774907022L212.11875,35.60000032645004L213.00468750000002,34.2307708630195L213.890625,34.2307708630195L214.7765625,34.2307708630195L215.6625,34.2307708630195L216.5484375,30.123074311476476L217.434375,34.2307708630195L218.3203125,32.86154139958894L219.20624999999998,32.86154139958894L220.0921875,30.123074311476476L220.97812499999998,31.492303774907022L221.86406250000002,34.2307708630195L222.75,42.44615580485418L223.6359375,31.492303774907022L224.521875,35.60000032645004L225.4078125,41.076926341423636L226.29375000000002,45.18461473171529L227.1796875,47.923073658576385L228.065625,38.33845925331116L228.9515625,36.96922978988059L229.8375,31.492303774907022L230.7234375,34.2307708630195L231.609375,35.60000032645004L232.49531249999998,31.492303774907022L233.38125,31.492303774907022L234.26718749999998,31.492303774907022L235.15312500000002,34.2307708630195L236.0390625,32.86154139958894L236.925,36.96922978988059L237.81093750000002,32.86154139958894L238.696875,32.86154139958894L239.58281250000002,38.33845925331116L240.46875,38.33845925331116L241.3546875,35.60000032645004L242.240625,35.60000032645004L243.1265625,35.60000032645004L244.0125,36.96922978988059L244.8984375,36.96922978988059L245.78437499999998,34.2307708630195L246.6703125,31.492303774907022L247.55624999999998,32.86154139958894L248.4421875,34.2307708630195L249.328125,30.123074311476476" style="fill: none;" fill="none"></path></g></g></g></g></g></g><g transform="translate(51, 178)" clip-path="url(#clip_1)"><clipPath id="clip_1"><rect width="278" height="22"></rect></clipPath><g><g><line x1="0" y1="0" x2="0" y2="5" style="visibility: inherit;" fill="rgb(0, 0, 0)" stroke="rgb(204, 204, 204)" stroke-width="1px"></line><line x1="25.3125" y1="0" x2="25.3125" y2="5" style="visibility: inherit;" fill="rgb(0, 0, 0)" stroke="rgb(204, 204, 204)" stroke-width="1px"></line><line x1="50.625" y1="0" x2="50.625" y2="5" style="visibility: inherit;" fill="rgb(0, 0, 0)" stroke="rgb(204, 204, 204)" stroke-width="1px"></line><line x1="75.9375" y1="0" x2="75.9375" y2="5" style="visibility: inherit;" fill="rgb(0, 0, 0)" stroke="rgb(204, 204, 204)" stroke-width="1px"></line><line x1="101.25" y1="0" x2="101.25" y2="5" style="visibility: inherit;" fill="rgb(0, 0, 0)" stroke="rgb(204, 204, 204)" stroke-width="1px"></line><line x1="126.5625" y1="0" x2="126.5625" y2="5" style="visibility: inherit;" fill="rgb(0, 0, 0)" stroke="rgb(204, 204, 204)" stroke-width="1px"></line><line x1="151.875" y1="0" x2="151.875" y2="5" style="visibility: inherit;" fill="rgb(0, 0, 0)" stroke="rgb(204, 204, 204)" stroke-width="1px"></line><line x1="177.1875" y1="0" x2="177.1875" y2="5" style="visibility: inherit;" fill="rgb(0, 0, 0)" stroke="rgb(204, 204, 204)" stroke-width="1px"></line><line x1="202.5" y1="0" x2="202.5" y2="5" style="visibility: inherit;" fill="rgb(0, 0, 0)" stroke="rgb(204, 204, 204)" stroke-width="1px"></line><line x1="227.8125" y1="0" x2="227.8125" y2="5" style="visibility: inherit;" fill="rgb(0, 0, 0)" stroke="rgb(204, 204, 204)" stroke-width="1px"></line><line x1="253.125" y1="0" x2="253.125" y2="5" style="visibility: inherit;" fill="rgb(0, 0, 0)" stroke="rgb(204, 204, 204)" stroke-width="1px"></line><line x1="278.4375" y1="0" x2="278.4375" y2="5" style="visibility: inherit;" fill="rgb(0, 0, 0)" stroke="rgb(204, 204, 204)" stroke-width="1px"></line></g><g transform="translate(0, 8)"><text x="0" y="0" dx="0em" dy="0.95em" style="text-anchor: middle; visibility: hidden; font-family: Roboto, sans-serif; font-size: 12px; font-weight: 200;" fill="rgb(50, 49, 63)" stroke="none" stroke-width="1px">-200</text><text x="25.3125" y="0" dx="0em" dy="0.95em" style="text-anchor: middle; visibility: inherit; font-family: Roboto, sans-serif; font-size: 12px; font-weight: 200;" fill="rgb(50, 49, 63)" stroke="none" stroke-width="1px">0</text><text x="50.625" y="0" dx="0em" dy="0.95em" style="text-anchor: middle; visibility: hidden; font-family: Roboto, sans-serif; font-size: 12px; font-weight: 200;" fill="rgb(50, 49, 63)" stroke="none" stroke-width="1px">200</text><text x="75.9375" y="0" dx="0em" dy="0.95em" style="text-anchor: middle; visibility: inherit; font-family: Roboto, sans-serif; font-size: 12px; font-weight: 200;" fill="rgb(50, 49, 63)" stroke="none" stroke-width="1px">400</text><text x="101.25" y="0" dx="0em" dy="0.95em" style="text-anchor: middle; visibility: hidden; font-family: Roboto, sans-serif; font-size: 12px; font-weight: 200;" fill="rgb(50, 49, 63)" stroke="none" stroke-width="1px">600</text><text x="126.5625" y="0" dx="0em" dy="0.95em" style="text-anchor: middle; visibility: inherit; font-family: Roboto, sans-serif; font-size: 12px; font-weight: 200;" fill="rgb(50, 49, 63)" stroke="none" stroke-width="1px">800</text><text x="151.875" y="0" dx="0em" dy="0.95em" style="text-anchor: middle; visibility: hidden; font-family: Roboto, sans-serif; font-size: 12px; font-weight: 200;" fill="rgb(50, 49, 63)" stroke="none" stroke-width="1px">1k</text><text x="177.1875" y="0" dx="0em" dy="0.95em" style="text-anchor: middle; visibility: inherit; font-family: Roboto, sans-serif; font-size: 12px; font-weight: 200;" fill="rgb(50, 49, 63)" stroke="none" stroke-width="1px">1.2k</text><text x="202.5" y="0" dx="0em" dy="0.95em" style="text-anchor: middle; visibility: hidden; font-family: Roboto, sans-serif; font-size: 12px; font-weight: 200;" fill="rgb(50, 49, 63)" stroke="none" stroke-width="1px">1.4k</text><text x="227.8125" y="0" dx="0em" dy="0.95em" style="text-anchor: middle; visibility: inherit; font-family: Roboto, sans-serif; font-size: 12px; font-weight: 200;" fill="rgb(50, 49, 63)" stroke="none" stroke-width="1px">1.6k</text><text x="253.125" y="0" dx="0em" dy="0.95em" style="text-anchor: middle; visibility: hidden; font-family: Roboto, sans-serif; font-size: 12px; font-weight: 200;" fill="rgb(50, 49, 63)" stroke="none" stroke-width="1px">1.8k</text><text x="278.4375" y="0" dx="0em" dy="0.95em" style="text-anchor: middle; visibility: hidden; font-family: Roboto, sans-serif; font-size: 12px; font-weight: 200;" fill="rgb(50, 49, 63)" stroke="none" stroke-width="1px">2k</text></g><line x1="0" y1="0" x2="278.4375" y2="0" fill="rgb(0, 0, 0)" stroke="rgb(204, 204, 204)" stroke-width="1px"></line></g></g></g></g></svg>